<svg xmlns="http://www.w3.org/2000/svg" viewBox="0 0 342.08 100.06"><defs><style>.cls-1{font-size:90.93px;font-family:NeueMachina-Regular, Neue Machina;letter-spacing:-0.06em;}.cls-2{letter-spacing:-0.06em;}.cls-3{letter-spacing:-0.08em;}.cls-4{letter-spacing:-0.09em;}</style></defs><g id="Layer_2" data-name="Layer 2"><g id="Layer_1-2" data-name="Layer 1"><text class="cls-1" transform="translate(73.76 77.51)">w<tspan class="cls-2" x="73.1" y="0">u</tspan><tspan class="cls-3" x="121.66" y="0">r</tspan><tspan class="cls-4" x="154.66" y="0">le</tspan><tspan x="232.95" y="0">t</tspan></text><polygon points="58.34 67.66 56.72 68.6 45.53 75.05 41.41 67.91 46.8 58.55 33.98 51.14 31.93 49.96 31.6 49.77 33.34 48.77 43.92 42.66 47.44 48.77 48.14 49.96 48.81 51.14 57.4 66.03 58.34 67.66"/><polygon points="24.47 50.3 9.63 50.3 1.04 35.42 0.1 33.79 1.73 32.85 12.92 26.39 17.05 33.54 11.65 42.9 24.47 50.3"/><polygon points="43.55 59.41 40.03 65.52 39.34 66.71 38.65 67.91 30.07 82.78 29.13 84.41 27.51 83.47 16.3 77.01 20.44 69.85 31.23 69.85 31.23 52.31 32.98 53.31 43.55 59.41"/><polygon points="42.14 24.44 38.02 31.59 27.22 31.59 27.22 49.14 25.48 48.14 14.89 42.02 18.42 35.91 19.79 33.54 28.38 18.66 29.33 17.03 30.96 17.98 42.14 24.44"/><rect y="52.68" width="28.86" height="14.8"/><polygon points="58.45 33.96 58.45 48.76 50.18 48.76 44.79 39.41 31.96 46.81 29.91 48 29.6 48.19 29.6 33.96 58.45 33.96"/></g></g></svg>